<?xml version="1.0" standalone="no"?>
<!DOCTYPE svg PUBLIC "-//W3C//DTD SVG 20010904//EN"
 "http://www.w3.org/TR/2001/REC-SVG-20010904/DTD/svg10.dtd">
<svg version="1.0" xmlns="http://www.w3.org/2000/svg"
 width="1024.000000pt" height="1024.000000pt" viewBox="0 0 1024.000000 1024.000000"
 preserveAspectRatio="xMidYMid meet">

<g transform="translate(0.000000,1024.000000) scale(0.100000,-0.100000)"
fill="#000000" stroke="none">
<path d="M7500 8740 c-8 -5 -25 -10 -38 -10 -24 0 -125 -47 -237 -110 -91 -52
-271 -140 -285 -140 -5 0 -18 -4 -28 -9 -9 -5 -53 -27 -97 -48 -96 -48 -168
-86 -175 -93 -5 -5 -19 -13 -89 -52 -116 -64 -152 -119 -247 -370 -71 -188
-89 -225 -116 -230 -13 -2 -61 0 -108 4 -168 16 -489 23 -740 16 -338 -9 -416
-16 -467 -39 -54 -24 -63 -24 -63 1 0 20 -6 20 -82 5 -22 -4 -22 -2 -2 38 14
29 11 27 -28 -15 -38 -41 -49 -48 -93 -52 -27 -3 -79 -8 -115 -12 -36 -3 -69
-10 -74 -15 -6 -5 -28 -9 -51 -9 -23 0 -45 -4 -51 -8 -5 -4 -27 -14 -49 -21
-42 -13 -78 -27 -107 -42 -10 -5 -26 -9 -37 -9 -11 0 -21 -3 -23 -8 -1 -4 -34
-23 -73 -42 -38 -19 -85 -47 -103 -62 -18 -15 -42 -28 -54 -28 -11 0 -50 26
-87 58 -73 65 -130 106 -136 100 -2 -2 26 -27 63 -55 37 -28 82 -67 100 -86
l34 -35 -35 -46 c-20 -25 -38 -54 -41 -63 -5 -15 -18 -18 -66 -19 -51 -1 -75
-8 -153 -47 -51 -25 -131 -76 -179 -111 -83 -62 -87 -64 -83 -38 2 15 7 65 10
110 10 154 31 215 99 306 20 25 36 51 36 57 0 20 -122 -55 -163 -101 -23 -26
-66 -87 -95 -136 -29 -49 -62 -100 -72 -114 l-18 -24 -11 39 c-24 91 -61 320
-63 394 -2 45 -5 81 -8 81 -3 0 -22 -30 -42 -67 -38 -71 -65 -177 -88 -351
-12 -88 -14 -92 -31 -76 -26 24 -111 149 -148 219 -29 56 -130 190 -137 182
-2 -1 6 -43 17 -92 11 -50 26 -133 34 -185 8 -52 21 -131 30 -174 8 -44 13
-82 10 -84 -6 -7 -115 62 -199 127 -42 33 -96 69 -119 80 -39 18 -137 39 -137
29 0 -3 18 -23 40 -46 21 -23 62 -81 91 -130 67 -113 117 -191 143 -221 l21
-24 -95 7 c-52 3 -142 11 -200 17 -58 6 -130 9 -160 7 l-55 -3 130 -87 c72
-47 170 -105 219 -127 l90 -41 -85 -57 c-118 -78 -192 -111 -298 -131 l-92
-18 48 -23 c102 -50 215 -62 382 -41 41 6 76 8 78 6 5 -5 -165 -286 -204 -336
-20 -25 -49 -57 -66 -72 -28 -25 -29 -28 -11 -28 31 0 123 29 174 55 25 13 89
55 143 94 54 39 100 71 103 71 3 0 4 -66 2 -147 -3 -137 -5 -152 -31 -208 -15
-32 -39 -74 -53 -93 -14 -18 -24 -36 -21 -38 11 -11 108 48 149 89 43 45 142
209 167 280 7 21 15 37 17 34 2 -2 11 -67 19 -145 8 -78 24 -186 35 -240 10
-53 21 -113 23 -132 l3 -35 26 55 c16 33 35 103 48 175 12 66 30 154 41 197
10 42 19 87 19 99 0 13 4 19 8 13 24 -26 112 -317 112 -369 0 -13 -16 -30 -43
-47 -49 -31 -259 -233 -304 -293 -27 -34 -33 -38 -47 -26 -9 7 -16 9 -16 3 0
-5 16 -17 36 -27 29 -13 33 -19 23 -31 -6 -8 -17 -14 -23 -13 -23 3 -36 -1
-36 -11 0 -5 -17 -38 -38 -72 -21 -35 -46 -83 -56 -108 -10 -25 -22 -54 -27
-65 -19 -47 -36 -118 -57 -246 -10 -59 -27 -84 -111 -167 -47 -47 -78 -88
-101 -137 l-33 -70 -3 -188 c-1 -117 -6 -199 -14 -217 -22 -53 2 -396 30 -424
6 -6 10 -18 10 -29 0 -29 56 -134 110 -207 41 -56 93 -108 174 -175 35 -29
123 -70 171 -79 208 -40 274 -45 349 -25 22 6 59 15 81 21 114 30 239 122 291
215 30 54 54 135 54 181 0 96 57 261 95 276 19 7 44 -16 197 -184 48 -52 125
-126 172 -165 118 -98 117 -97 71 -197 -36 -79 -95 -249 -95 -276 0 -35 -132
-122 -184 -122 -14 0 -26 -4 -26 -10 0 -6 -46 -10 -117 -10 -221 0 -366 -45
-525 -162 -137 -101 -261 -281 -287 -418 -6 -30 -13 -66 -17 -80 -20 -83 -41
-537 -25 -553 6 -6 11 -17 11 -24 0 -7 26 -45 57 -83 50 -61 62 -70 90 -70 18
0 33 -4 33 -9 0 -5 37 -11 83 -14 103 -7 156 -16 182 -28 27 -13 561 -5 645
10 36 6 94 14 130 17 36 3 69 10 75 15 5 5 30 9 56 9 26 0 50 4 53 9 3 5 32
11 63 14 32 3 78 11 103 16 25 6 80 17 123 24 44 8 82 19 86 25 3 6 21 10 40
10 18 -1 37 5 41 12 4 7 14 11 22 8 8 -3 22 0 33 8 10 7 28 11 41 8 12 -3 25
-1 28 5 4 6 18 11 32 11 13 0 32 4 42 8 86 42 105 55 144 97 61 65 72 171 50
480 -8 106 -10 233 -6 337 6 159 5 169 -16 212 -12 26 -41 62 -65 82 -24 19
-51 47 -60 61 -16 24 -16 28 0 69 l17 44 223 0 c139 0 226 -4 230 -10 3 -5 14
-10 24 -10 28 0 51 -33 51 -73 0 -20 -3 -37 -7 -37 -5 0 -16 -14 -25 -30 -9
-17 -24 -30 -33 -30 -8 0 -15 -4 -15 -10 0 -5 -8 -10 -19 -10 -10 0 -27 -12
-37 -27 -9 -16 -26 -38 -37 -49 -28 -29 -31 -45 -28 -144 5 -168 -4 -316 -19
-335 -5 -6 -10 -118 -12 -251 l-3 -240 30 -35 c17 -20 38 -40 47 -45 77 -41
154 -75 213 -93 39 -12 86 -28 105 -35 19 -8 71 -24 115 -37 44 -12 84 -26 90
-31 5 -4 19 -8 31 -8 13 0 26 -4 29 -10 3 -5 21 -10 40 -10 19 0 37 -4 40 -10
3 -5 24 -10 46 -10 21 0 39 -4 39 -10 0 -6 26 -10 59 -10 33 0 63 -4 66 -10 3
-5 32 -10 64 -10 31 0 62 -5 68 -11 7 -7 48 -8 119 -5 60 4 162 9 227 12 64 3
117 9 117 15 0 5 34 9 75 9 43 0 75 4 75 10 0 6 13 10 29 10 17 0 33 5 36 10
3 6 17 10 31 10 13 0 24 3 24 8 0 4 13 13 28 19 47 21 118 99 152 166 l32 64
-5 139 c-7 193 -32 361 -66 449 -26 65 -96 192 -130 235 -46 58 -149 160 -162
160 -5 0 -9 3 -9 8 0 4 -17 16 -37 27 -21 11 -53 30 -72 42 -18 13 -37 20 -42
17 -5 -3 -9 0 -9 5 0 6 -13 11 -29 11 -15 0 -41 4 -57 9 -16 5 -56 13 -88 16
-48 6 -65 13 -87 36 -15 16 -29 43 -32 61 -3 18 -13 73 -22 122 -15 85 -13
124 7 137 5 3 30 2 56 -2 103 -20 474 -10 488 12 3 5 27 9 54 9 27 0 52 5 55
10 3 6 17 10 30 10 13 0 27 5 30 10 3 6 19 10 35 10 16 0 32 5 35 10 3 6 15
10 26 10 10 0 27 4 37 9 9 5 40 19 67 31 167 74 315 173 419 278 88 89 136
156 190 267 21 44 43 88 47 97 5 10 9 26 9 36 0 24 45 91 78 117 118 92 148
124 181 190 39 78 38 49 29 575 -4 240 -11 306 -38 390 -12 36 -89 197 -103
215 -4 6 -22 33 -39 60 -46 71 -174 194 -274 263 -18 12 -36 22 -40 22 -4 0
-15 7 -24 15 -10 9 -68 38 -131 65 -110 48 -168 92 -169 128 0 7 -4 20 -9 30
-5 9 -17 51 -26 92 -18 81 -19 85 -67 235 -44 141 -142 370 -185 434 -37 55
-34 68 60 224 51 84 72 158 71 247 0 62 -5 83 -28 125 -37 66 -118 148 -175
177 -25 12 -47 26 -49 31 -2 4 -12 7 -23 7 -10 0 -19 5 -19 10 0 6 -9 10 -20
10 -11 0 -28 4 -38 9 -25 13 -86 31 -104 31 -46 0 -62 74 -28 139 30 59 69 88
180 133 14 6 34 15 45 21 41 22 91 47 130 65 22 10 49 23 60 29 11 6 34 17 50
24 17 7 46 23 65 35 19 11 64 36 100 54 36 19 83 46 105 60 22 14 57 34 78 45
20 11 56 36 80 56 l42 37 3 104 c3 83 0 115 -16 158 -46 131 -141 230 -219
230 -21 0 -45 -5 -53 -10z m34 -309 c9 -24 31 -65 50 -91 l34 -47 -348 -176
c-191 -98 -353 -177 -362 -177 -8 0 -27 13 -43 30 -38 39 -145 123 -145 114 0
-4 23 -43 51 -85 28 -43 49 -83 47 -89 -3 -10 -152 82 -185 115 -23 24 -27 18
-8 -12 30 -46 78 -106 115 -142 19 -19 34 -41 32 -50 -5 -21 -158 -406 -220
-551 l-49 -115 -172 1 c-95 1 -175 4 -178 8 -3 3 1 23 9 43 9 21 62 151 117
288 154 377 183 445 190 445 4 0 27 -20 51 -45 24 -24 45 -43 47 -41 2 2 -12
36 -32 77 -55 114 -48 140 49 200 22 13 238 128 480 255 l441 232 7 -72 c4
-39 14 -91 22 -115z m-1619 -892 c88 -6 174 -13 192 -17 l32 -7 -21 -48 c-15
-34 -25 -46 -37 -43 -33 10 -263 25 -471 31 -216 6 -605 -7 -755 -25 -44 -6
-129 -14 -190 -19 -126 -11 -142 -14 -248 -48 -53 -17 -82 -22 -89 -15 -7 7 0
12 22 17 17 4 30 9 27 11 -2 2 -28 -1 -58 -7 -76 -16 -177 -67 -221 -111 -33
-33 -38 -44 -38 -83 0 -39 6 -52 40 -89 116 -125 413 -215 920 -278 153 -19
231 -22 625 -24 277 -1 455 2 462 8 6 5 27 8 45 5 l33 -3 -32 -8 c-18 -5 -33
-14 -33 -21 0 -8 8 -11 20 -8 11 3 20 1 20 -5 0 -7 10 -8 28 -3 15 4 63 6 107
6 44 0 68 1 53 3 -16 2 -28 10 -28 18 0 16 -14 18 -40 4 -29 -15 -120 -24
-120 -11 0 6 18 11 40 11 38 0 54 13 28 23 -7 3 4 3 24 0 23 -3 44 -1 53 7 12
10 15 10 15 0 0 -8 6 -9 18 -5 9 4 28 7 42 6 20 -1 22 1 10 9 -11 7 -12 10 -2
10 8 0 16 -9 19 -20 4 -14 9 -17 17 -11 21 17 78 23 100 12 17 -9 29 -9 56 3
34 15 34 15 8 16 -16 0 -28 -4 -28 -10 0 -5 -5 -10 -11 -10 -5 0 -7 5 -3 11 5
9 -11 11 -62 7 -45 -4 -61 -3 -46 3 31 12 151 14 182 4 l25 -8 -30 -13 c-35
-15 -19 -19 19 -4 27 10 35 30 13 30 -8 0 -14 7 -14 15 0 13 2 13 17 0 9 -8
24 -15 33 -15 9 0 17 -7 17 -15 0 -8 6 -15 13 -15 8 -1 7 -4 -3 -9 -29 -16
-307 -57 -450 -66 -171 -11 -205 -22 -75 -25 l110 -2 -55 -12 c-39 -9 -49 -14
-35 -19 11 -3 -11 -4 -50 -3 -38 2 -53 1 -32 -1 39 -4 50 -19 20 -26 -10 -2
-7 -3 6 -2 31 4 51 -4 51 -19 -1 -15 -46 -66 -60 -66 -7 0 -9 -15 -6 -40 5
-44 -1 -52 -32 -43 -18 4 -22 13 -22 44 0 22 -4 39 -10 39 -5 0 -10 -18 -10
-39 0 -31 4 -41 20 -46 21 -7 28 -25 9 -25 -7 0 -10 -13 -7 -34 3 -28 0 -37
-18 -45 -12 -5 -37 -22 -55 -38 -33 -28 -107 -73 -424 -256 -203 -118 -188
-103 -166 -163 10 -27 22 -59 25 -71 l7 -23 -143 -1 -143 -2 90 -8 c50 -5 111
-6 138 -3 31 4 47 2 47 -5 0 -6 -8 -11 -17 -12 -13 0 -11 -3 7 -11 14 -6 29
-10 33 -9 5 1 6 -3 3 -8 -8 -12 20 -22 39 -15 20 8 29 -19 15 -45 -6 -12 -7
-21 -1 -21 5 0 12 6 14 13 3 6 6 2 6 -11 1 -13 -3 -20 -9 -17 -5 3 -10 -1 -10
-9 0 -9 -4 -16 -10 -16 -5 0 -10 -5 -10 -10 0 -6 5 -9 12 -8 6 2 13 -6 15 -17
1 -11 0 -14 -3 -7 -3 6 -15 12 -26 12 -12 0 -26 7 -33 16 -10 14 -28 17 -98
15 -56 -1 -87 2 -87 8 0 21 -20 10 -35 -19 l-16 -30 117 0 c65 0 114 -3 110
-7 -4 -4 -27 -6 -51 -4 -36 2 -45 -1 -45 -14 0 -13 -10 -16 -52 -14 -43 2 -54
-1 -66 -19 -8 -12 -20 -22 -28 -22 -7 0 -15 -10 -17 -22 -2 -13 -3 -9 -2 7 1
17 -2 41 -6 55 -5 16 -7 -11 -5 -70 1 -52 0 -84 -5 -70 -4 14 -7 42 -8 63 -1
20 -6 37 -12 37 -7 0 -9 44 -7 130 2 72 0 130 -4 130 -5 0 -8 -103 -8 -230 l0
-230 113 -2 c61 -1 137 -3 167 -4 30 -1 197 3 370 7 409 11 718 35 1020 80 74
11 167 24 205 29 39 5 137 23 219 40 82 16 152 27 155 24 3 -3 8 -95 10 -203
l3 -198 -65 -7 c-43 -4 -85 -1 -128 8 -105 25 -280 37 -524 38 -426 1 -677
-46 -758 -142 -26 -31 -47 -86 -47 -127 0 -12 -8 -24 -17 -27 -44 -13 -613
-28 -858 -23 -337 7 -839 55 -1070 101 -191 38 -274 57 -310 70 -50 18 -52 14
-35 -109 23 -177 94 -452 124 -481 14 -15 94 -25 102 -13 3 5 15 9 27 8 21 0
21 -1 2 -9 -28 -11 -17 -14 155 -39 562 -82 1101 -113 1569 -92 135 6 245 10
247 8 1 -1 -5 -36 -12 -77 -19 -102 -28 -291 -16 -368 5 -36 5 -65 0 -68 -5
-3 -133 -11 -285 -17 -436 -17 -953 11 -1241 69 -68 13 -137 24 -153 24 -17 0
-39 5 -50 11 -75 40 135 -165 269 -263 45 -33 82 -62 82 -64 0 -2 -35 17 -77
42 -104 61 -221 151 -316 243 -42 42 -87 79 -100 83 -12 5 -53 17 -92 28 -47
14 -76 28 -87 44 -56 78 -218 434 -218 479 0 10 7 13 20 10 11 -3 20 -2 20 3
0 4 -15 57 -34 118 -19 61 -39 138 -45 171 -29 166 -41 257 -36 266 10 15 -5
49 -20 49 -25 0 -29 50 -17 240 25 402 103 687 278 1019 107 202 271 427 306
418 23 -6 21 3 -43 200 -58 179 -62 234 -24 299 45 76 184 158 349 204 88 24
330 77 421 90 282 44 804 56 1220 29z m-2951 -331 l6 -238 -41 0 -42 0 7 98
c14 203 45 399 61 380 1 -2 5 -110 9 -240z m3881 218 c131 -46 253 -121 293
-180 22 -33 44 -85 23 -56 -9 12 -11 11 -11 -8 0 -13 -4 -21 -9 -18 -9 6 -21
-16 -21 -37 0 -7 5 -6 11 3 7 10 9 11 7 2 -2 -8 -8 -14 -13 -14 -6 0 -16 -5
-24 -11 -12 -10 -13 -9 -6 2 9 16 16 125 7 116 -3 -2 -23 12 -45 32 -37 33
-216 125 -272 139 -36 9 -32 44 4 44 9 0 34 -7 56 -14z m-3579 -104 c-19 -37
-37 -90 -66 -197 -33 -119 -60 -185 -75 -185 -25 0 -65 23 -65 37 0 40 202
394 217 380 2 -3 -3 -19 -11 -35z m-591 -53 c14 -28 42 -73 60 -100 126 -179
142 -209 113 -209 -7 0 -26 -7 -42 -15 -16 -9 -33 -12 -37 -8 -15 16 -134 383
-124 383 2 0 15 -23 30 -51z m2514 -22 c20 -19 32 -25 28 -15 -11 30 47 54
140 57 93 3 117 -7 147 -64 11 -19 23 -35 28 -35 4 0 8 -7 8 -15 0 -17 18 -19
40 -5 12 8 11 10 -7 10 -14 0 -23 6 -23 15 0 13 3 13 20 3 17 -11 22 -10 31 2
9 12 10 10 6 -7 -6 -26 8 -31 17 -8 3 8 12 15 20 15 10 0 13 -6 9 -17 -6 -16
-5 -17 11 -3 18 14 17 15 -10 28 l-29 13 27 -4 c15 -2 26 0 25 6 -1 5 17 25
41 43 37 29 52 34 95 34 62 0 130 -34 132 -66 1 -17 -3 -19 -29 -16 -17 3 -34
9 -37 14 -16 26 -169 -33 -169 -65 0 -6 13 2 28 17 29 27 102 48 102 28 0 -5
6 -10 13 -9 40 1 47 -4 47 -33 0 -16 7 -33 16 -38 27 -15 -34 -33 -78 -23 -24
6 -38 5 -41 -2 -2 -6 -14 -7 -32 -3 -23 6 -26 9 -14 17 10 8 7 8 -11 3 -14 -4
-34 -8 -45 -10 -11 -1 -22 -3 -25 -3 -3 -1 7 -9 22 -19 25 -16 26 -20 14 -37
-12 -17 -27 -19 -114 -20 -55 0 -98 4 -95 9 3 4 -5 5 -17 1 -15 -5 -25 -2 -31
6 -7 11 -9 10 -9 -3 0 -10 -4 -18 -10 -18 -5 0 -10 6 -10 13 0 20 -52 65 -57
50 -3 -8 -22 -13 -44 -13 -32 0 -39 -3 -39 -20 0 -11 -4 -20 -10 -20 -5 0 -6
7 -3 17 4 10 2 14 -5 9 -6 -3 -13 -2 -17 4 -10 16 -45 12 -45 -5 0 -11 -11
-15 -40 -15 -22 0 -40 -4 -40 -10 0 -5 -4 -10 -10 -10 -5 0 -10 7 -10 16 0 9
-8 14 -17 13 -34 -3 -48 3 -23 10 34 9 41 64 11 81 -21 11 -46 8 -119 -16 -56
-18 -68 -18 -52 1 10 12 10 15 -4 15 -9 0 -16 -7 -16 -15 0 -12 -14 -15 -67
-14 -45 1 -61 4 -48 10 12 4 14 8 5 8 -19 0 -59 -17 -42 -18 23 -2 12 -16 -28
-35 -22 -11 -43 -16 -46 -13 -4 4 5 11 19 16 27 10 45 31 28 31 -6 0 -11 -4
-11 -10 0 -5 -6 -10 -14 -10 -8 0 -21 -6 -28 -12 -7 -7 -30 -14 -51 -15 -32
-1 -39 2 -53 28 -13 25 -13 33 -2 46 19 23 81 48 86 34 2 -6 8 -9 13 -6 5 4 6
0 4 -7 -6 -14 -51 -38 -71 -38 -6 0 -15 -7 -18 -16 -5 -14 -4 -15 8 -5 8 7 25
10 38 7 13 -3 17 -3 10 0 -11 5 -9 9 5 18 11 6 41 25 68 43 55 37 122 51 177
36 28 -8 38 -7 38 2 0 19 53 62 90 73 83 25 141 13 199 -41z m334 3 c3 -11 1
-18 -4 -14 -5 3 -9 12 -9 20 0 20 7 17 13 -6z m129 13 c-18 -3 -30 -9 -26 -14
4 -7 -8 -8 -33 -3 -74 13 -69 23 12 22 44 -1 65 -3 47 -5z m21 -20 c-7 -2 -19
-2 -25 0 -7 3 -2 5 12 5 14 0 19 -2 13 -5z m-60 -20 c-7 -2 -21 -2 -30 0 -10
3 -4 5 12 5 17 0 24 -2 18 -5z m-1877 -100 c1 -76 6 -101 36 -180 l36 -92 -77
-18 c-71 -16 -264 -23 -278 -9 -3 2 19 45 49 93 30 48 74 120 96 159 40 70
100 134 125 134 9 0 13 -24 13 -87z m-1364 0 c20 -10 288 -273 288 -282 0 -3
-4 -12 -9 -20 -7 -11 -17 -11 -62 3 -48 14 -60 23 -104 82 -58 77 -126 182
-156 239 l-21 40 24 -26 c13 -15 31 -31 40 -36z m4802 8 c-4 -17 -9 -30 -11
-27 -3 2 -2 19 2 36 4 17 9 30 11 27 2 -2 1 -18 -2 -36z m-3604 -1 c-24 -45
-197 -206 -287 -268 -33 -22 -36 -23 -53 -7 -29 26 -11 50 102 140 154 123
265 186 238 135z m1427 -6 c-3 -3 -12 -4 -19 -1 -8 3 -5 6 6 6 11 1 17 -2 13
-5z m943 -18 c0 -2 -7 -7 -16 -10 -8 -3 -12 -2 -9 4 6 10 25 14 25 6z m-3449
-43 c13 -16 12 -17 -3 -4 -10 7 -18 15 -18 17 0 8 8 3 21 -13z m2134 -3 c8
-13 -5 -13 -25 0 -13 8 -13 10 2 10 9 0 20 -4 23 -10z m1113 -25 c-3 -3 -9 2
-12 12 -6 14 -5 15 5 6 7 -7 10 -15 7 -18z m286 3 c28 -40 21 -48 -46 -49 -56
-2 -58 -3 -23 -8 l40 -6 -55 -8 c-76 -10 -128 -9 -135 2 -7 12 32 54 70 74 17
9 53 16 82 17 43 0 55 -4 67 -22z m129 1 c21 0 21 -1 2 -9 -17 -7 -14 -9 13
-9 20 -1 31 3 27 9 -3 6 3 10 15 10 12 0 18 -4 15 -10 -3 -5 -2 -10 4 -10 5 0
12 5 14 10 3 6 4 5 3 -2 -2 -9 -26 -14 -74 -16 -68 -3 -72 -2 -72 19 0 15 4
19 16 15 9 -3 25 -6 37 -7z m-1350 -20 c-5 -5 -22 -4 -38 1 l-30 10 33 -5 c23
-3 31 -1 26 7 -5 7 -3 8 5 3 7 -4 9 -11 4 -16z m420 14 c-7 -2 -21 -2 -30 0
-10 3 -4 5 12 5 17 0 24 -2 18 -5z m322 -13 c-3 -5 -10 -10 -16 -10 -5 0 -9 5
-9 10 0 6 7 10 16 10 8 0 12 -4 9 -10z m82 4 c-3 -3 -12 -4 -19 -1 -8 3 -5 6
6 6 11 1 17 -2 13 -5z m-742 -14 c-3 -5 -16 -10 -28 -9 -20 1 -20 2 3 9 14 4
26 8 28 9 2 1 0 -3 -3 -9z m238 3 c-7 -2 -19 -2 -25 0 -7 3 -2 5 12 5 14 0 19
-2 13 -5z m105 0 c-15 -2 -42 -2 -60 0 -18 2 -6 4 27 4 33 0 48 -2 33 -4z
m-245 -20 c-13 -2 -33 -2 -45 0 -13 2 -3 4 22 4 25 0 35 -2 23 -4z m145 -10
c-21 -2 -57 -2 -80 0 -24 2 -7 4 37 4 44 0 63 -2 43 -4z m1892 -3 c0 -5 -5
-10 -11 -10 -5 0 -7 5 -4 10 3 6 8 10 11 10 2 0 4 -4 4 -10z m-4419 -17 c13
-16 12 -17 -3 -4 -10 7 -18 15 -18 17 0 8 8 3 21 -13z m462 -44 c77 -25 146
-89 189 -173 84 -165 21 -370 -139 -451 -151 -75 -315 -39 -416 92 -56 74 -71
119 -70 213 0 89 19 144 70 212 87 113 225 154 366 107z m3757 -9 c0 -5 -10
-10 -22 -11 -22 -1 -22 -1 2 -9 32 -10 13 -12 -31 -3 l-33 6 39 13 c22 6 41
12 43 13 1 1 2 -3 2 -9z m225 0 c-3 -5 -12 -10 -18 -10 -7 0 -6 4 3 10 19 12
23 12 15 0z m-105 -39 c-23 -14 -130 -43 -176 -48 -35 -4 -42 -2 -47 16 -2 11
-2 22 1 26 8 8 76 -6 83 -17 3 -5 23 -3 45 6 42 16 70 23 94 25 13 0 13 -1 0
-8z m-4589 -66 c169 -15 254 -27 265 -38 5 -5 -33 -97 -40 -97 -3 0 -23 7 -43
15 -21 8 -67 21 -103 30 -67 17 -301 93 -309 101 -7 7 40 5 230 -11z m1369
-39 c-14 -8 -61 -23 -105 -34 -73 -19 -240 -64 -274 -73 -15 -5 -44 88 -30 97
24 14 111 22 264 23 148 0 167 -2 145 -13z m-1408 -48 c14 -11 -1 -7 -40 11
-35 16 -66 32 -70 35 -13 14 88 -29 110 -46z m53 -36 c-3 -3 -11 0 -18 7 -9
10 -8 11 6 5 10 -3 15 -9 12 -12z m1356 -9 c-10 -16 -40 -61 -65 -101 l-46
-72 -52 26 c-29 15 -64 30 -78 34 l-25 7 30 8 c34 8 127 55 194 97 56 35 67
35 42 1z m2656 11 c-3 -3 -12 -4 -19 -1 -8 3 -5 6 6 6 11 1 17 -2 13 -5z m-79
-11 c-10 -2 -28 -2 -40 0 -13 2 -5 4 17 4 22 1 32 -1 23 -4z m152 -3 c13 -8
13 -10 -2 -10 -9 0 -20 5 -23 10 -8 13 5 13 25 0z m-3985 -120 c-55 -27 -101
-54 -103 -60 -2 -5 -10 -10 -18 -10 -8 0 -14 -5 -14 -10 0 -6 -8 -13 -17 -17
-10 -3 -38 -15 -63 -26 -25 -11 -56 -24 -70 -28 -18 -7 -14 -7 15 -3 42 6 336
103 374 124 13 6 24 10 26 8 2 -2 6 -24 10 -49 6 -39 4 -47 -12 -53 -50 -20
-194 -38 -338 -42 -175 -5 -173 -6 -55 46 46 20 76 37 145 81 54 35 175 88
200 88 11 0 -25 -22 -80 -49z m3744 -9 c12 -22 5 -31 -26 -31 -18 0 -23 5 -23
25 0 31 34 35 49 6z m-2717 -33 c49 -23 88 -47 88 -55 0 -17 -15 -17 -30 2 -7
8 -20 15 -29 15 -9 0 -52 18 -96 39 -68 33 -75 40 -50 40 16 1 69 -18 117 -41z
m3678 -134 c51 -130 110 -302 110 -324 0 -11 -15 -20 -47 -28 -27 -6 -95 -23
-153 -37 -155 -38 -286 -60 -565 -94 -432 -54 -385 -51 -391 -22 -3 14 -16 63
-28 108 l-23 83 106 67 c58 36 150 95 205 130 l98 64 -23 25 -22 24 22 0 c12
0 20 3 18 8 -3 4 23 7 56 7 76 0 319 38 447 69 153 38 141 43 190 -80z m-3750
76 c132 -29 143 -36 121 -79 -9 -16 -18 -17 -73 -9 -148 20 -191 43 -158 83
14 17 47 19 110 5z m2720 0 c0 -5 -4 -10 -10 -10 -5 0 -10 5 -10 10 0 6 5 10
10 10 6 0 10 -4 10 -10z m53 3 c-7 -2 -19 -2 -25 0 -7 3 -2 5 12 5 14 0 19 -2
13 -5z m52 -3 c3 -5 1 -10 -4 -10 -6 0 -11 5 -11 10 0 6 2 10 4 10 3 0 8 -4
11 -10z m-89 -25 c-20 -15 -36 -19 -36 -10 0 5 38 23 50 24 3 0 -4 -6 -14 -14z
m61 9 c-3 -3 -12 -4 -19 -1 -8 3 -5 6 6 6 11 1 17 -2 13 -5z m-115 -26 c-7 -7
-12 -8 -12 -2 0 14 12 26 19 19 2 -3 -1 -11 -7 -17z m-2797 -75 c76 -81 135
-210 108 -236 -3 -4 -29 15 -57 41 -28 26 -73 66 -101 89 -50 43 -50 43 -28
58 12 9 25 31 29 50 3 19 8 35 10 35 2 0 20 -17 39 -37z m-663 5 c-5 -19 -266
-275 -317 -311 l-30 -22 16 25 c9 14 42 68 74 120 122 197 136 211 216 207 38
-2 45 -5 41 -19z m840 -27 l27 -6 -26 -58 -26 -58 -37 58 c-20 32 -39 63 -43
70 -7 11 45 9 105 -6z m-720 -76 c16 -14 36 -25 44 -25 24 0 16 -51 -19 -125
-19 -39 -47 -99 -62 -135 -16 -36 -49 -93 -73 -127 -45 -64 -72 -85 -46 -35 7
15 14 32 14 39 0 6 5 13 11 15 14 5 45 135 59 251 10 88 28 167 38 167 2 0 17
-11 34 -25z m404 -132 c11 -56 19 -370 9 -338 -2 6 -8 89 -14 185 -7 96 -14
188 -17 204 -9 58 9 15 22 -51z m-146 55 c-1 -13 -27 -142 -74 -358 l-25 -115
0 151 c-1 83 -4 192 -7 242 l-7 92 57 0 c38 0 56 -4 56 -12z m338 -186 c2 -8
-3 -40 -11 -71 -9 -31 -21 -75 -27 -98 -8 -34 -18 -46 -55 -67 l-45 -25 0 177
c0 97 -3 188 -7 201 -5 20 7 14 68 -39 41 -35 76 -70 77 -78z m-924 115 c-6
-16 -44 -40 -44 -28 0 5 10 16 23 24 27 20 27 20 21 4z m203 -179 c-2 -18 -4
-6 -4 27 0 33 2 48 4 33 2 -15 2 -42 0 -60z m500 -10 c-3 -8 -6 -5 -6 6 -1 11
2 17 5 13 3 -3 4 -12 1 -19z m2410 -280 c-3 -8 -6 -5 -6 6 -1 11 2 17 5 13 3
-3 4 -12 1 -19z m2086 8 c129 -54 322 -219 403 -345 70 -111 94 -185 94 -303
0 -59 -4 -98 -10 -98 -5 0 -10 6 -10 13 0 27 -72 203 -107 260 -54 89 -222
252 -316 307 -74 43 -77 47 -97 104 -11 33 -20 64 -20 68 0 12 27 10 63 -6z
m-2102 -73 c-12 -20 -14 -14 -5 12 4 9 9 14 11 11 3 -2 0 -13 -6 -23z m-2281
-120 c-6 -48 -17 -94 -23 -101 -15 -19 -21 -66 -7 -57 6 4 10 -5 10 -22 0 -21
-9 -34 -38 -53 -68 -44 -138 -108 -167 -152 -16 -23 -31 -45 -33 -48 -2 -3 -8
3 -13 13 -6 9 -15 17 -20 17 -6 0 -3 -7 6 -16 9 -9 15 -19 13 -23 -2 -3 -14
-30 -27 -58 -13 -29 -27 -53 -32 -53 -5 0 -9 -11 -9 -24 0 -12 -5 -37 -11 -55
-10 -28 -14 -31 -52 -30 l-42 2 40 7 40 7 -42 2 c-28 1 -43 6 -43 14 0 8 8 13
18 13 9 -1 18 4 19 9 1 6 -5 9 -13 7 -11 -2 -13 1 -5 15 5 10 12 27 16 37 5
19 6 19 21 0 14 -18 15 -18 4 3 -6 13 -8 34 -4 48 5 21 9 23 21 14 12 -11 13
-8 7 17 -4 16 -8 30 -9 32 -5 6 -84 -178 -90 -211 -7 -36 -31 -57 -66 -57 -29
0 20 190 81 315 52 106 150 234 250 328 75 71 199 161 208 152 2 -2 -1 -43 -8
-92z m1978 -10 c-5 -25 -28 -28 -28 -4 0 12 6 21 16 21 9 0 14 -7 12 -17z m79
-89 c-3 -3 -12 -4 -19 -1 -8 3 -5 6 6 6 11 1 17 -2 13 -5z m-2403 -56 c-14
-23 -38 -48 -46 -48 -15 0 -8 39 10 49 24 14 45 14 36 -1z m3971 -287 c47 -5
-26 -9 -220 -13 -298 -6 -427 -19 -535 -55 -30 -10 -55 -24 -58 -31 -8 -25
153 -71 320 -92 93 -11 403 -15 538 -6 l85 5 -105 -19 c-194 -35 -580 -25
-765 20 -22 5 -45 10 -51 10 -7 0 -13 -51 -18 -147 -9 -199 -59 -608 -77 -628
-15 -15 -10 -190 7 -273 19 -92 67 -199 121 -273 22 -30 82 -94 133 -142 83
-79 88 -87 54 -72 -111 46 -232 164 -292 286 -63 126 -83 205 -89 344 -5 120
-3 147 36 365 31 180 41 262 50 447 6 116 13 178 21 189 31 36 176 71 349 83
132 10 403 11 496 2z m-3214 -48 c0 -11 3 -13 6 -6 3 10 9 9 20 -3 9 -9 24
-13 34 -10 11 3 29 9 42 12 21 5 21 4 -3 -11 l-25 -16 25 5 c36 8 199 -15 174
-25 -10 -5 7 -5 39 -2 41 4 57 2 57 -6 0 -7 5 -9 11 -5 8 4 8 0 0 -15 -14 -25
-20 -26 -36 -4 -14 18 -39 8 -31 -13 3 -7 0 -16 -6 -20 -7 -5 -8 -2 -4 7 4 8
0 5 -9 -6 -9 -12 -11 -21 -5 -23 5 -2 10 -21 10 -43 0 -32 -4 -39 -19 -39 -14
0 -21 8 -23 28 l-3 27 -24 -24 c-17 -17 -20 -25 -11 -31 9 -6 7 -13 -9 -29
-15 -15 -33 -21 -66 -21 l-45 0 -2 -42 c-1 -24 -1 -59 0 -78 1 -29 -3 -22 -23
35 -27 75 -30 88 -16 66 12 -19 31 -5 30 22 0 20 -1 21 -8 3 -7 -19 -8 -19
-15 -1 -5 15 -9 16 -15 6 -6 -9 -12 -3 -20 20 -16 46 -14 49 19 43 19 -4 30
-2 30 5 0 6 -14 11 -30 11 -17 0 -32 6 -34 13 -6 22 -25 112 -31 150 -4 23 -2
37 5 37 5 0 10 -8 11 -17z m3764 -28 c67 -40 162 -133 195 -190 23 -41 48 -65
100 -100 165 -109 250 -276 237 -465 -8 -112 -28 -185 -83 -299 -59 -125 -113
-199 -216 -296 -175 -167 -393 -254 -608 -243 -208 11 -343 106 -356 250 -7
80 7 100 86 117 86 18 233 61 228 66 -2 3 -31 0 -64 -5 -168 -29 -244 26 -244
177 0 97 12 107 167 148 l88 23 -60 1 c-138 2 -180 41 -173 159 7 130 52 157
293 178 243 21 316 42 388 112 42 41 49 62 12 38 -23 -15 -25 -15 -48 17 -53
70 -95 215 -83 281 13 68 60 79 141 31z m313 -21 c260 -54 452 -268 452 -504
0 -61 -30 -161 -59 -199 -18 -23 -18 -23 -24 60 -9 118 -48 217 -127 324 -47
64 -151 160 -199 185 -23 11 -43 31 -51 50 -7 16 -28 43 -46 60 -53 46 -52 46
54 24z m-3550 -41 c-10 -2 -26 -2 -35 0 -10 3 -2 5 17 5 19 0 27 -2 18 -5z
m-81 -19 c-3 -3 -12 -4 -19 -1 -8 3 -5 6 6 6 11 1 17 -2 13 -5z m228 -4 c-11
-5 -27 -9 -35 -9 -9 0 -8 4 5 9 11 5 27 9 35 9 9 0 8 -4 -5 -9z m324 -16 c50
-6 61 -10 61 -25 0 -11 5 -19 12 -19 9 0 9 -3 1 -11 -7 -7 -23 -7 -54 2 -24 7
-48 13 -52 13 -4 1 -12 7 -16 15 -6 8 -19 12 -35 9 -14 -3 -23 -2 -21 3 3 4
-1 10 -7 12 -19 8 40 8 111 1z m-561 -11 c-10 -2 -18 -9 -18 -14 0 -5 -18 -9
-40 -9 -53 0 -51 18 3 23 61 5 75 5 55 0z m358 -16 c5 -4 1 -5 -9 -1 -11 4
-19 0 -23 -10 -8 -21 -20 -20 -20 2 0 19 37 25 52 9z m362 -26 c1 -27 -3 -41
-14 -45 -8 -3 -13 -10 -10 -14 7 -11 -37 -32 -66 -32 -14 0 -18 5 -14 15 3 8
0 15 -6 15 -6 0 -9 3 -5 6 3 3 14 1 24 -5 12 -7 14 -10 4 -11 -8 0 -12 -2 -9
-5 3 -4 18 -3 34 1 25 6 26 8 9 14 -18 7 -17 8 8 15 15 4 28 15 28 24 1 9 2
21 4 26 1 6 3 16 3 23 4 25 9 11 10 -27z m-233 -4 c13 -10 15 -16 6 -21 -14
-9 -68 2 -77 15 -3 6 5 7 22 3 19 -5 25 -4 20 5 -10 15 6 14 29 -2z m1551
-159 c-8 -189 -34 -555 -42 -580 -3 -10 -11 -18 -17 -18 -19 0 -58 30 -52 40
3 5 17 123 30 262 42 438 45 458 68 458 20 0 20 -4 13 -162z m-1193 125 c-13
-2 -33 -2 -45 0 -13 2 -3 4 22 4 25 0 35 -2 23 -4z m-923 -7 c0 -3 -4 -8 -10
-11 -5 -3 -10 -1 -10 4 0 6 5 11 10 11 6 0 10 -2 10 -4z m640 -11 c14 -8 19
-14 10 -14 -8 0 -24 6 -34 14 -25 19 -9 19 24 0z m-244 -7 c5 -7 3 -8 -6 -3
-10 6 -12 2 -7 -15 4 -16 3 -20 -5 -12 -6 6 -8 18 -5 26 8 19 13 20 23 4z
m124 -70 c0 -4 -13 4 -30 19 -16 14 -30 28 -30 30 0 2 14 -6 30 -19 17 -12 30
-25 30 -30z m-105 13 c-3 -5 -1 -12 5 -16 5 -3 10 -12 10 -18 0 -7 -7 -3 -15
7 -18 23 -19 36 -4 36 5 0 8 -4 4 -9z m1215 -21 c-48 -42 -134 -92 -200 -117
-118 -45 -165 -55 -295 -60 -216 -8 -376 29 -525 122 -31 19 -57 29 -59 23 -2
-6 -6 -6 -11 2 -5 7 -6 19 -3 25 3 9 22 2 61 -21 271 -163 704 -159 982 9 89
54 96 56 50 17z m-1710 16 c0 -3 -4 -8 -10 -11 -5 -3 -10 -1 -10 4 0 6 5 11
10 11 6 0 10 -2 10 -4z m-840 -47 c115 -36 177 -112 156 -193 l-6 -25 -67 31
c-219 99 -486 72 -674 -70 -77 -57 -79 -55 -34 43 27 60 108 143 175 179 126
69 301 82 450 35z m1380 -24 c0 -5 -5 -3 -10 5 -5 8 -10 20 -10 25 0 6 5 3 10
-5 5 -8 10 -19 10 -25z m70 -49 c-7 -7 -13 -7 -20 0 -6 6 -3 10 10 10 13 0 16
-4 10 -10z m677 -142 c-3 -3 -12 -4 -19 -1 -8 3 -5 6 6 6 11 1 17 -2 13 -5z
m50 0 c-3 -3 -12 -4 -19 -1 -8 3 -5 6 6 6 11 1 17 -2 13 -5z m-2255 -69 c176
-46 342 -213 439 -445 53 -125 37 -210 -46 -250 -47 -23 -65 -24 -118 -9 -87
24 -154 122 -164 239 l-6 68 -36 -27 c-20 -14 -58 -49 -85 -78 l-49 -53 14
-47 c16 -56 15 -183 -1 -214 -10 -18 -9 -20 7 -17 11 2 31 30 52 73 30 62 35
67 45 50 6 -11 31 -41 56 -66 58 -59 139 -92 233 -93 77 0 82 -8 47 -83 -58
-128 -262 -229 -424 -209 -348 41 -566 297 -566 667 0 128 12 192 51 276 81
170 340 273 551 218z m1253 -1245 c-15 -41 -33 -113 -41 -160 -9 -47 -17 -86
-19 -88 -8 -9 -75 34 -75 49 0 43 82 260 112 297 9 11 15 10 30 -5 18 -18 18
-21 -7 -93z m32 28 c-3 -8 -6 -5 -6 6 -1 11 2 17 5 13 3 -3 4 -12 1 -19z
m-161 -399 c43 -16 74 -39 138 -104 78 -77 89 -84 167 -110 108 -36 244 -40
328 -10 59 22 109 70 118 116 3 16 9 29 13 29 10 0 60 -62 60 -74 0 -6 -5 -4
-11 4 -8 11 -9 8 -4 -14 5 -23 3 -27 -10 -22 -9 3 -14 2 -10 -3 7 -13 -5 -42
-16 -35 -5 3 -12 -3 -16 -12 -10 -28 -53 -63 -107 -89 -42 -20 -45 -24 -25
-27 28 -4 -56 -9 -191 -11 -130 -3 -175 19 -295 142 -88 90 -209 180 -272 203
-39 14 -42 25 -10 31 50 10 89 6 143 -14z m1936 -60 c-82 -40 -120 -66 -184
-127 -45 -42 -98 -101 -120 -129 l-39 -53 -83 0 c-92 0 -133 11 -188 49 -36
25 -68 76 -68 107 0 27 32 84 46 84 8 0 14 -10 14 -24 0 -82 180 -127 295 -72
28 13 76 46 108 74 113 101 192 140 287 141 30 1 21 -6 -68 -50z m-2331 -19
c338 -64 615 -379 622 -709 2 -74 2 -74 -27 -82 -16 -4 -42 -5 -59 -2 -27 5
-28 7 -12 14 14 5 16 8 4 8 -8 1 -24 -6 -35 -15 -10 -8 -14 -13 -7 -10 6 3 22
2 35 -3 l23 -10 -25 -2 c-14 -1 -31 -1 -37 0 -7 1 -13 -2 -13 -7 0 -6 -13 -12
-30 -14 -22 -3 -30 0 -31 11 -1 14 -2 14 -6 0 -6 -22 -22 -26 -203 -45 -181
-19 -433 -15 -600 11 -96 15 -244 52 -345 87 l-40 13 1 80 c1 97 30 205 81
312 30 61 58 98 130 171 78 79 104 99 178 133 135 64 267 83 396 59z m2870
-41 c82 -22 189 -82 274 -154 128 -108 228 -324 237 -511 l3 -69 -160 -38
c-232 -55 -235 -56 -406 -67 -167 -11 -363 -2 -519 24 -125 21 -124 21 -134
96 -6 42 -22 75 -28 59 -6 -16 11 -95 25 -116 10 -16 8 -16 -83 6 l-75 18 3
64 c8 200 102 404 243 532 72 66 208 138 304 161 91 22 224 20 316 -5z m-1654
-121 c-3 -8 -6 -5 -6 6 -1 11 2 17 5 13 3 -3 4 -12 1 -19z m559 -140 c-10 -6
-23 -5 -33 2 -15 9 -14 10 6 4 16 -4 21 -3 17 5 -5 7 -1 8 10 4 15 -5 15 -7 0
-15z m-536 -488 c0 -6 -18 -17 -40 -26 -23 -9 -40 -23 -40 -32 0 -13 2 -13 18
0 26 22 46 33 38 20 -3 -6 -2 -13 4 -17 16 -10 12 -24 -16 -50 -35 -33 -224
-91 -583 -180 -372 -92 -429 -101 -731 -111 -213 -8 -341 7 -494 57 -152 50
-196 91 -196 182 0 42 2 47 18 39 26 -14 161 -58 212 -70 240 -58 602 -66 900
-22 307 45 801 165 870 210 20 13 40 13 40 0z m411 -30 c58 -30 248 -95 379
-129 257 -68 414 -85 712 -78 245 5 396 24 551 67 53 15 97 23 97 18 0 -13
-53 -33 -135 -52 -38 -10 -79 -19 -90 -22 -11 -3 -33 -7 -50 -10 -16 -3 -70
-25 -120 -49 -49 -23 -108 -48 -130 -55 -33 -11 -36 -14 -20 -20 17 -6 16 -8
-8 -14 -15 -3 -27 -11 -27 -16 0 -16 -223 -12 -330 5 -145 24 -545 135 -648
180 -18 8 -38 15 -44 15 -6 0 -48 18 -94 40 -84 41 -94 52 -94 113 0 32 0 32
51 7z m1679 -179 c-14 -4 -24 -13 -22 -20 1 -7 -2 -9 -9 -5 -8 5 -10 2 -6 -8
5 -15 -9 -38 -24 -38 -10 0 21 63 35 72 6 4 20 7 31 7 16 -1 15 -2 -5 -8z
m-225 -51 c-3 -5 -18 -9 -33 -9 l-27 1 30 8 c17 4 31 8 33 9 2 0 0 -3 -3 -9z
m66 -3 c-6 -8 -8 -17 -4 -20 3 -4 0 -7 -7 -7 -7 0 -11 -3 -8 -6 4 -3 17 1 30
10 22 15 24 14 25 -4 1 -16 -5 -20 -32 -20 -18 0 -40 3 -49 6 -23 9 -20 34 5
34 11 0 17 5 14 10 -3 6 4 10 16 10 17 0 19 -3 10 -13z m171 -19 c-7 -7 -16
-7 -28 0 -14 8 -13 10 10 10 18 0 24 -4 18 -10z m-264 -4 c29 -8 28 -22 -3
-36 -14 -6 -25 -15 -25 -20 0 -5 11 -1 24 7 17 11 45 15 105 14 49 -2 76 -6
68 -11 -22 -12 -148 -40 -154 -34 -3 3 5 7 18 10 13 3 42 9 64 15 37 9 36 9
-19 5 -39 -2 -67 -10 -80 -23 -12 -10 -30 -20 -42 -23 -18 -5 -20 -1 -17 21 4
20 2 23 -6 11 -8 -12 -11 -7 -11 22 0 43 24 56 78 42z m207 -24 c3 -5 2 -10
-4 -10 -5 0 -13 5 -16 10 -3 6 -2 10 4 10 5 0 13 -4 16 -10z m-318 -23 c0 -8
-15 -13 -41 -13 l-41 -1 40 13 c22 7 40 13 41 13 0 1 1 -5 1 -12z m18 -47 c24
-4 -44 -18 -85 -18 -25 0 -37 2 -27 5 9 2 17 8 17 12 0 6 57 6 95 1z"/>
<path d="M6450 6800 c-24 -8 -24 -8 7 -9 17 -1 35 4 38 9 7 11 -9 11 -45 0z"/>
<path d="M6678 6803 c7 -3 16 -2 19 1 4 3 -2 6 -13 5 -11 0 -14 -3 -6 -6z"/>
<path d="M6048 6773 c6 -2 18 -2 25 0 6 3 1 5 -13 5 -14 0 -19 -2 -12 -5z"/>
<path d="M6330 6776 c0 -2 18 -6 39 -8 22 -2 37 0 35 4 -5 8 -74 11 -74 4z"/>
<path d="M5618 6753 c12 -2 32 -2 45 0 12 2 2 4 -23 4 -25 0 -35 -2 -22 -4z"/>
<path d="M5728 6753 c6 -2 18 -2 25 0 6 3 1 5 -13 5 -14 0 -19 -2 -12 -5z"/>
<path d="M5980 6750 c-16 -5 -2 -6 35 -3 33 3 62 7 64 9 8 7 -74 2 -99 -6z"/>
<path d="M3880 6494 c-8 -16 -16 -33 -18 -37 -2 -4 66 -79 152 -166 86 -87
156 -163 156 -168 0 -6 -9 -30 -19 -54 -59 -133 -68 -362 -19 -470 35 -76 79
-123 146 -155 48 -23 65 -26 123 -22 150 11 254 128 275 306 l7 61 25 -20 c25
-19 27 -20 40 -2 8 10 23 38 34 63 11 25 26 59 35 77 8 18 12 37 8 43 -7 11
-387 331 -565 476 -97 78 -99 79 -260 89 l-106 7 -14 -28z"/>
<path d="M5920 6410 c0 -5 8 -10 18 -10 9 0 27 -3 40 -6 16 -5 22 -2 22 10 0
12 -10 16 -40 16 -22 0 -40 -4 -40 -10z"/>
<path d="M5858 6373 c12 -2 32 -2 45 0 12 2 2 4 -23 4 -25 0 -35 -2 -22 -4z"/>
<path d="M5958 6373 c7 -3 16 -2 19 1 4 3 -2 6 -13 5 -11 0 -14 -3 -6 -6z"/>
<path d="M5945 6330 c-8 -13 5 -13 25 0 13 8 13 10 -2 10 -9 0 -20 -4 -23 -10z"/>
<path d="M5218 6323 c12 -2 32 -2 45 0 12 2 2 4 -23 4 -25 0 -35 -2 -22 -4z"/>
<path d="M5858 6323 c12 -2 32 -2 45 0 12 2 2 4 -23 4 -25 0 -35 -2 -22 -4z"/>
<path d="M5638 6313 c23 -2 61 -2 85 0 23 2 4 4 -43 4 -47 0 -66 -2 -42 -4z"/>
<path d="M5145 5820 c-3 -5 -1 -10 4 -10 6 0 11 5 11 10 0 6 -2 10 -4 10 -3 0
-8 -4 -11 -10z"/>
<path d="M5238 5793 c7 -3 16 -2 19 1 4 3 -2 6 -13 5 -11 0 -14 -3 -6 -6z"/>
<path d="M5175 5770 c-3 -6 1 -7 9 -4 18 7 21 14 7 14 -6 0 -13 -4 -16 -10z"/>
<path d="M5223 5773 c9 -2 23 -2 30 0 6 3 -1 5 -18 5 -16 0 -22 -2 -12 -5z"/>
<path d="M5450 5729 c0 -5 4 -9 9 -9 5 0 17 -3 27 -7 11 -4 15 -3 11 4 -9 14
-47 24 -47 12z"/>
<path d="M5320 5690 c-39 -6 -34 -7 35 -8 44 -1 87 3 95 8 17 11 -57 11 -130
0z"/>
<path d="M5182 5625 c0 -16 2 -22 5 -12 2 9 2 23 0 30 -3 6 -5 -1 -5 -18z"/>
<path d="M7121 7213 c-10 -11 -10 -18 -2 -26 8 -8 11 -7 11 5 0 9 5 18 12 20
7 3 8 7 3 10 -6 3 -16 -1 -24 -9z"/>
<path d="M5005 7215 c-16 -7 -23 -14 -14 -14 8 -1 24 6 35 14 24 18 18 18 -21
0z"/>
<path d="M5355 7193 c-3 -8 -5 -16 -5 -19 0 -2 35 -3 77 -2 83 1 75 12 -19 27
-37 6 -48 5 -53 -6z"/>
<path d="M5148 7193 c7 -3 16 -2 19 1 4 3 -2 6 -13 5 -11 0 -14 -3 -6 -6z"/>
<path d="M5288 7183 c-9 -2 -15 -10 -12 -18 3 -7 -5 -20 -18 -29 l-22 -16 22
0 c12 0 22 5 22 10 0 6 12 10 28 10 15 0 34 5 42 11 12 8 7 9 -17 6 -18 -2
-33 0 -33 5 0 4 5 8 10 8 6 0 10 5 10 10 0 10 -3 11 -32 3z"/>
<path d="M5170 7170 c0 -5 7 -10 15 -10 8 0 15 -5 15 -12 0 -6 2 -9 5 -6 3 3
3 13 -1 22 -7 17 -34 22 -34 6z"/>
<path d="M4586 7161 c-4 -5 3 -7 14 -4 23 6 26 13 6 13 -8 0 -17 -4 -20 -9z"/>
<path d="M5516 7147 c3 -10 9 -15 12 -12 3 3 0 11 -7 18 -10 9 -11 8 -5 -6z"/>
<path d="M4813 7143 c9 -2 25 -2 35 0 9 3 1 5 -18 5 -19 0 -27 -2 -17 -5z"/>
<path d="M5298 7123 c7 -3 16 -2 19 1 4 3 -2 6 -13 5 -11 0 -14 -3 -6 -6z"/>
<path d="M5608 7093 c7 -3 16 -2 19 1 4 3 -2 6 -13 5 -11 0 -14 -3 -6 -6z"/>
<path d="M5553 7083 c9 -2 23 -2 30 0 6 3 -1 5 -18 5 -16 0 -22 -2 -12 -5z"/>
<path d="M5100 7070 c0 -5 5 -10 10 -10 6 0 10 5 10 10 0 6 -4 10 -10 10 -5 0
-10 -4 -10 -10z"/>
<path d="M5585 7060 c-16 -7 -17 -9 -3 -9 9 -1 20 4 23 9 7 11 7 11 -20 0z"/>
<path d="M2400 7053 c0 -5 14 -24 31 -43 l30 -35 -27 43 c-26 41 -34 50 -34
35z"/>
<path d="M2772 6718 c-16 -16 -15 -39 1 -32 8 3 18 -6 25 -21 14 -30 50 -33
87 -9 33 21 32 52 -1 64 -35 14 -98 12 -112 -2z"/>
<path d="M3020 6712 c-27 -21 -19 -47 21 -68 36 -18 66 -5 75 31 5 21 11 24
33 19 l26 -5 -24 20 c-30 27 -100 28 -131 3z"/>
<path d="M3008 6529 c-10 -10 -31 -19 -47 -19 -16 0 -37 -3 -47 -7 -13 -5 -16
-3 -11 10 4 11 1 17 -8 17 -8 0 -12 -6 -9 -13 4 -10 -3 -12 -25 -9 -17 2 -39
1 -48 -3 -23 -10 161 -36 199 -29 26 5 46 43 33 64 -9 14 -17 11 -37 -11z"/>
<path d="M3073 6513 c-22 -8 -14 -23 12 -23 14 0 25 4 25 9 0 11 -21 19 -37
14z"/>
<path d="M2948 6463 c-65 -4 -86 -14 -52 -27 24 -9 68 -7 105 5 41 14 61 30
34 27 -11 -1 -50 -3 -87 -5z"/>
<path d="M2920 6400 c8 -5 26 -10 40 -10 14 0 32 5 40 10 11 7 -1 10 -40 10
-39 0 -51 -3 -40 -10z"/>
<path d="M6763 6833 c9 -2 23 -2 30 0 6 3 -1 5 -18 5 -16 0 -22 -2 -12 -5z"/>
<path d="M3144 5278 c-16 -12 -43 -34 -61 -49 -29 -25 -30 -27 -8 -25 12 0 21
6 18 12 -2 6 12 19 31 29 19 11 33 21 31 24 -3 2 3 10 13 17 9 7 14 14 11 14
-4 0 -19 -10 -35 -22z"/>
<path d="M3006 5161 c-21 -22 -24 -30 -13 -34 9 -3 14 1 13 11 0 10 6 17 14
16 9 -1 16 7 16 17 0 11 -1 19 -1 19 -1 0 -14 -13 -29 -29z"/>
<path d="M2940 5085 c-7 -9 -8 -15 -2 -15 5 0 12 7 16 15 3 8 4 15 2 15 -2 0
-9 -7 -16 -15z"/>
<path d="M2915 5050 c-3 -5 -1 -10 4 -10 6 0 11 5 11 10 0 6 -2 10 -4 10 -3 0
-8 -4 -11 -10z"/>
<path d="M2890 4915 c0 -8 4 -15 10 -15 5 0 7 7 4 15 -4 8 -8 15 -10 15 -2 0
-4 -7 -4 -15z"/>
<path d="M3670 4878 c0 -12 3 -17 8 -12 4 5 11 12 15 15 5 3 2 9 -7 12 -12 5
-16 0 -16 -15z"/>
<path d="M3828 4893 c-12 -3 -18 -14 -17 -31 1 -21 2 -23 6 -7 7 28 23 36 58
30 24 -4 26 -3 10 4 -22 10 -31 11 -57 4z"/>
<path d="M3811 4814 c0 -11 3 -14 6 -6 3 7 2 16 -1 19 -3 4 -6 -2 -5 -13z"/>
<path d="M3725 4790 c3 -5 8 -10 11 -10 2 0 4 5 4 10 0 6 -5 10 -11 10 -5 0
-7 -4 -4 -10z"/>
<path d="M3756 4792 c-2 -4 4 -8 15 -8 10 0 19 4 19 8 0 4 -6 8 -14 8 -8 0
-17 -4 -20 -8z"/>
<path d="M8030 4536 c0 -12 50 -99 50 -88 0 14 -38 92 -45 92 -3 0 -5 -2 -5
-4z"/>
<path d="M8121 4334 c0 -11 3 -14 6 -6 3 7 2 16 -1 19 -3 4 -6 -2 -5 -13z"/>
<path d="M8122 4290 c0 -14 2 -19 5 -12 2 6 2 18 0 25 -3 6 -5 1 -5 -13z"/>
<path d="M4298 1923 c7 -3 16 -2 19 1 4 3 -2 6 -13 5 -11 0 -14 -3 -6 -6z"/>
<path d="M4228 1913 c6 -2 12 -11 12 -19 0 -17 26 -8 34 12 4 10 -3 14 -27 13
-18 0 -26 -3 -19 -6z"/>
<path d="M4160 1900 c0 -13 20 -13 40 0 12 8 9 10 -12 10 -16 0 -28 -4 -28
-10z"/>
<path d="M4175 1810 c27 -12 43 -12 25 0 -8 5 -22 9 -30 9 -10 0 -8 -3 5 -9z"/>
<path d="M7068 1942 c6 -62 12 -67 12 -9 0 25 -4 48 -9 51 -5 3 -6 -16 -3 -42z"/>
<path d="M7010 1970 c-23 -7 -23 -8 -3 -9 12 -1 25 4 28 9 3 6 5 10 3 9 -2 -1
-14 -5 -28 -9z"/>
<path d="M6925 1950 c-11 -4 -40 -13 -65 -19 -38 -9 -39 -9 -7 -6 20 3 54 8
75 11 29 4 34 3 22 -6 -13 -10 -12 -11 3 -6 10 3 21 6 24 6 2 0 -2 7 -11 15
-8 8 -16 15 -18 14 -2 0 -12 -4 -23 -9z"/>
<path d="M6767 1873 c7 -70 11 -75 12 -15 1 33 5 51 11 47 6 -3 10 -1 10 4 0
6 -8 11 -19 11 -16 0 -18 -6 -14 -47z"/>
<path d="M6880 1904 c0 -14 3 -14 15 -4 8 7 15 14 15 16 0 2 -7 4 -15 4 -8 0
-15 -7 -15 -16z"/>
<path d="M6791 1864 c0 -11 3 -14 6 -6 3 7 2 16 -1 19 -3 4 -6 -2 -5 -13z"/>
<path d="M6830 1820 c0 -13 11 -13 30 0 12 8 11 10 -7 10 -13 0 -23 -4 -23
-10z"/>
<path d="M6040 1815 c0 -5 5 -17 10 -25 5 -8 10 -10 10 -5 0 6 -5 17 -10 25
-5 8 -10 11 -10 5z"/>
<path d="M6875 1800 c-3 -6 1 -7 9 -4 18 7 21 14 7 14 -6 0 -13 -4 -16 -10z"/>
<path d="M4815 1740 c-8 -13 15 -13 35 0 12 8 11 10 -7 10 -12 0 -25 -4 -28
-10z"/>
<path d="M4875 1739 c-4 -6 -5 -12 -2 -15 2 -3 7 2 10 11 7 17 1 20 -8 4z"/>
<path d="M4938 1743 c6 -2 18 -2 25 0 6 3 1 5 -13 5 -14 0 -19 -2 -12 -5z"/>
<path d="M4770 1730 l-25 -8 28 -1 c15 -1 27 4 27 9 0 6 -1 10 -2 9 -2 -1 -14
-5 -28 -9z"/>
<path d="M4685 1705 c-40 -19 -16 -19 26 0 19 8 27 14 19 14 -8 0 -28 -7 -45
-14z"/>
<path d="M4490 1660 c-24 -8 -24 -8 7 -9 17 -1 35 4 38 9 7 11 -9 11 -45 0z"/>
<path d="M4438 1643 c7 -3 16 -2 19 1 4 3 -2 6 -13 5 -11 0 -14 -3 -6 -6z"/>
<path d="M4360 1629 c-11 -8 -8 -9 13 -4 19 4 26 2 22 -4 -4 -7 0 -8 10 -4 13
5 14 7 3 14 -17 11 -30 11 -48 -2z"/>
<path d="M4317 1619 c7 -7 15 -10 18 -7 3 3 -2 9 -12 12 -14 6 -15 5 -6 -5z"/>
<path d="M4163 1593 c9 -2 23 -2 30 0 6 3 -1 5 -18 5 -16 0 -22 -2 -12 -5z"/>
<path d="M4061 1579 c-61 -12 -65 -20 -5 -13 47 6 99 24 64 23 -8 -1 -35 -5
-59 -10z"/>
<path d="M3762 1461 c-10 -6 -4 -10 18 -15 49 -9 60 -8 60 10 0 14 -2 15 -17
3 -13 -11 -17 -11 -20 -1 -5 14 -22 15 -41 3z"/>
<path d="M3718 1443 c7 -3 16 -2 19 1 4 3 -2 6 -13 5 -11 0 -14 -3 -6 -6z"/>
<path d="M3663 1433 c9 -2 23 -2 30 0 6 3 -1 5 -18 5 -16 0 -22 -2 -12 -5z"/>
<path d="M6525 1450 c-13 -5 -14 -9 -5 -9 8 0 24 4 35 9 13 5 14 9 5 9 -8 0
-24 -4 -35 -9z"/>
<path d="M6788 1523 c6 -2 18 -2 25 0 6 3 1 5 -13 5 -14 0 -19 -2 -12 -5z"/>
<path d="M4830 8384 c0 -10 6 -14 14 -11 8 3 30 -3 50 -13 20 -10 36 -14 36
-10 0 5 -13 14 -30 22 -16 7 -30 16 -30 20 0 5 -9 8 -20 8 -12 0 -20 -7 -20
-16z"/>
<path d="M4869 8325 c17 -34 31 -51 31 -39 0 7 -9 22 -21 35 -16 19 -18 20
-10 4z"/>
<path d="M4974 8296 c20 -27 42 -68 48 -92 11 -39 28 -60 28 -35 0 27 -57 129
-83 150 -29 24 -29 23 7 -23z"/>
<path d="M4917 8093 c-4 -3 -7 -18 -6 -32 1 -26 1 -25 10 3 9 31 7 41 -4 29z"/>
<path d="M5038 8074 c-5 -4 -8 -19 -8 -33 0 -18 3 -22 11 -14 6 6 9 21 7 33
-1 12 -6 18 -10 14z"/>
<path d="M4890 8009 c0 -5 5 -7 10 -4 6 3 10 8 10 11 0 2 -4 4 -10 4 -5 0 -10
-5 -10 -11z"/>
<path d="M5021 7994 c0 -11 3 -14 6 -6 3 7 2 16 -1 19 -3 4 -6 -2 -5 -13z"/>
<path d="M4862 7943 c-13 -19 -21 -37 -19 -39 3 -3 15 11 27 31 29 47 22 54
-8 8z"/>
<path d="M4991 7934 c-6 -15 -9 -29 -7 -32 3 -2 10 8 16 23 6 15 9 29 7 31 -2
2 -9 -8 -16 -22z"/>
<path d="M4808 7858 c-32 -43 -48 -84 -18 -48 22 27 53 80 46 80 -2 0 -15 -15
-28 -32z"/>
<path d="M4871 7791 c-39 -45 -71 -86 -71 -91 0 -19 16 -10 33 19 10 17 40 55
69 86 28 31 48 58 45 61 -2 3 -37 -31 -76 -75z"/>
<path d="M2825 7720 c3 -5 12 -10 20 -10 8 0 17 5 20 10 4 6 -5 10 -20 10 -15
0 -24 -4 -20 -10z"/>
<path d="M2923 7723 c15 -2 37 -2 50 0 12 2 0 4 -28 4 -27 0 -38 -2 -22 -4z"/>
<path d="M3050 7724 c36 -8 138 -9 134 -2 -3 4 -38 7 -77 7 -40 -1 -65 -3 -57
-5z"/>
<path d="M2743 7704 c-21 -15 -6 -17 37 -5 25 7 25 7 3 13 -12 3 -30 0 -40 -8z"/>
<path d="M3243 7703 c9 -2 23 -2 30 0 6 3 -1 5 -18 5 -16 0 -22 -2 -12 -5z"/>
<path d="M2684 7685 c-10 -8 -14 -15 -7 -15 19 0 43 11 43 21 0 13 -14 11 -36
-6z"/>
<path d="M3320 7692 c0 -4 26 -16 58 -27 31 -10 79 -29 105 -42 27 -14 51 -22
54 -20 4 4 -80 47 -132 67 -11 4 -33 13 -48 19 -33 13 -37 13 -37 3z"/>
<path d="M2580 7648 c-76 -37 -75 -36 -67 -44 4 -4 12 -2 19 3 7 5 39 20 71
33 31 12 57 26 57 31 0 14 -10 11 -80 -23z"/>
<path d="M2475 7590 c-3 -5 -15 -10 -26 -10 -10 0 -19 -7 -19 -15 0 -8 3 -15
8 -15 13 0 68 49 55 50 -6 0 -15 -4 -18 -10z"/>
<path d="M3558 7588 c17 -21 72 -50 72 -39 0 6 -7 11 -15 11 -8 0 -15 5 -15
10 0 6 -7 10 -15 10 -8 0 -15 5 -15 10 0 6 -5 10 -11 10 -8 0 -8 -4 -1 -12z"/>
<path d="M2330 7514 c-39 -26 -57 -44 -46 -44 10 0 33 12 51 28 19 15 44 35
57 44 50 37 -1 14 -62 -28z"/>
<path d="M2199 7410 c-29 -27 -56 -50 -60 -50 -6 0 -24 -55 -34 -110 l-6 -35
20 25 c11 14 18 32 15 41 -5 18 22 55 95 132 60 62 38 61 -30 -3z"/>
<path d="M2076 7194 c-9 -23 -7 -36 3 -30 12 8 21 46 11 46 -4 0 -11 -7 -14
-16z"/>
<path d="M2050 7135 c0 -8 2 -15 4 -15 2 0 6 7 10 15 3 8 1 15 -4 15 -6 0 -10
-7 -10 -15z"/>
<path d="M2002 7039 c-18 -39 -32 -77 -32 -85 0 -7 -4 -15 -9 -18 -5 -4 -12
-25 -16 -49 -3 -23 -10 -53 -15 -67 -12 -36 -22 -126 -12 -115 5 6 14 42 21
80 7 39 15 77 19 85 3 8 7 22 8 30 4 21 29 87 58 153 14 31 22 57 18 57 -4 0
-22 -32 -40 -71z"/>
<path d="M1905 6657 c-4 -10 -5 -21 -1 -24 10 -10 18 4 13 24 -4 17 -4 17 -12
0z"/>
<path d="M1896 6594 c-10 -26 -7 -172 4 -179 6 -4 10 30 10 94 0 101 -2 115
-14 85z"/>
<path d="M1909 6371 c-12 -35 51 -301 72 -301 4 0 -3 33 -16 73 -13 39 -29
110 -37 157 -8 47 -17 79 -19 71z"/>
<path d="M1991 6040 c0 -8 8 -33 19 -55 11 -22 19 -33 19 -25 -1 21 -37 99
-38 80z"/>
<path d="M2051 5904 c0 -11 3 -14 6 -6 3 7 2 16 -1 19 -3 4 -6 -2 -5 -13z"/>
<path d="M2076 5860 c7 -28 12 -35 18 -29 2 2 -2 15 -10 29 l-15 25 7 -25z"/>
<path d="M2116 5790 c9 -19 20 -37 23 -40 4 -3 17 -18 29 -34 12 -16 22 -26
22 -22 0 4 -15 27 -32 51 -18 23 -39 51 -46 61 -7 11 -5 3 4 -16z"/>
<path d="M2208 5664 c6 -11 19 -27 28 -35 16 -13 16 -12 6 7 -6 11 -19 27 -28
35 -16 13 -16 12 -6 -7z"/>
<path d="M2316 5555 c4 -8 11 -15 16 -15 6 0 5 6 -2 15 -7 8 -14 15 -16 15 -2
0 -1 -7 2 -15z"/>
<path d="M2380 5495 c7 -8 17 -15 22 -15 6 0 5 7 -2 15 -7 8 -17 15 -22 15 -6
0 -5 -7 2 -15z"/>
<path d="M2420 5470 c0 -5 5 -10 11 -10 5 0 7 5 4 10 -3 6 -8 10 -11 10 -2 0
-4 -4 -4 -10z"/>
<path d="M2450 5452 c0 -5 17 -17 38 -28 58 -32 87 -49 92 -55 8 -8 89 -39
103 -38 6 0 -24 17 -68 38 -44 21 -99 50 -122 64 -24 15 -43 24 -43 19z"/>
<path d="M2705 5320 c3 -5 11 -10 16 -10 6 0 7 5 4 10 -3 6 -11 10 -16 10 -6
0 -7 -4 -4 -10z"/>
</g>
</svg>
